<?xml version="1.0" encoding="utf-8"?>
<!-- Generator: Adobe Illustrator 21.1.0, SVG Export Plug-In . SVG Version: 6.00 Build 0)  -->
<svg version="1.1" xmlns="http://www.w3.org/2000/svg" xmlns:xlink="http://www.w3.org/1999/xlink" x="0px" y="0px"
	 viewBox="0 0 512 512" style="enable-background:new 0 0 512 512;" xml:space="preserve">
<style type="text/css">
	.st0{fill:#C57946;}
	.st1{fill:#375A95;}
	.st2{fill:#5EA396;}
	.st3{fill:#D15852;}
	.st4{fill:#5E5E5E;}
	.st5{fill:#434343;}
	.st6{fill:#A1252F;}
	.st7{fill:#CA5C51;}
	.st8{fill:#334A62;}
	.st9{clip-path:url(#SVGID_2_);}
	.st10{fill:#6BAE94;}
	.st11{fill:#FFFFFF;}
	.st12{fill:#902336;}
	.st13{fill:#4B84A1;}
	.st14{fill:#559680;}
	.st15{fill:#D15A32;}
	.st16{fill:none;}
	.st17{fill:#262626;}
	.st18{fill:#6DB7A0;}
	.st19{fill:#29ABE2;}
	.st20{fill:#00FFFF;}
	.st21{fill:#0000FF;}
	.st22{fill:#00A99D;}
	.st23{opacity:0.8;fill:#5EA396;}
	.st24{opacity:0.8;fill:#CA5C51;}
	.st25{fill:#FFFFFF;stroke:#5EA396;stroke-width:10;stroke-linecap:round;stroke-linejoin:round;stroke-miterlimit:10;}
	.st26{opacity:0.61;fill:#6BAE94;}
	.st27{opacity:0.61;fill:#D15852;}
	.st28{fill:#3D7DB7;stroke:#333333;stroke-width:7;stroke-linejoin:round;stroke-miterlimit:10;}
	.st29{fill:#EA6B15;stroke:#333333;stroke-width:7;stroke-linejoin:round;stroke-miterlimit:10;}
	.st30{fill:#2AD38E;stroke:#333333;stroke-width:7;stroke-linejoin:round;stroke-miterlimit:10;}
	.st31{fill:#565656;}
	.st32{fill:#8D8D8D;}
	.st33{fill:#8A8A8A;}
	.st34{fill:#7C7C7C;}
	.st35{fill:#333333;}
	.st36{clip-path:url(#SVGID_4_);}
	.st37{fill:#3C75A9;}
	.st38{fill:#0C324D;}
</style>
<g id="Camada_1">
	<g>
		<path class="st37" d="M466.05,513.98H47.95C21.46,513.98,0,492.53,0,466.05V47.95C0,21.46,21.46,0,47.95,0h418.1
			C492.53,0,514,21.46,514,47.95v418.1C513.98,492.53,492.53,513.98,466.05,513.98z"/>
		<g>
			<g>
				<g>
					<path class="st11" d="M347.21,352.93c-3.97,0-7.93-1.51-10.96-4.54l-32.05-32.05c-6.05-6.05-6.05-15.87,0-21.92l76.17-76.17
						c3.67-3.67,4.87-6.17,5.26-7.34c0.45-1.36,1.14-3.42-3.28-7.84c-4.4-4.4-7.27-4.4-8.22-4.4c-1.18,0-2.52,0.27-3.98,0.8
						c-3.4,1.34-7.03,3.91-10.77,7.66l-71.23,71.23c-3.03,3.03-6.99,4.54-10.96,4.54s-7.93-1.51-10.96-4.54l-31.5-31.5
						c-6.05-6.05-6.05-15.87,0-21.92l71.23-71.23c7.87-7.87,9.49-11.51,9.73-12.16c0.51-1.36,1.22-3.26-3.26-7.74
						c-3.7-3.7-7.08-5.73-9.52-5.73c-0.49,0-0.99,0.08-1.53,0.23c-1.06,0.37-4.55,1.97-10.93,8.36l-72,72
						c-2.91,2.91-6.85,4.54-10.96,4.54s-8.05-1.63-10.96-4.54l-31.72-31.72c-6.05-6.05-6.05-15.87,0-21.92L284.23,35.61
						c3.03-3.03,6.99-4.54,10.96-4.54s7.93,1.51,10.96,4.54l30.4,30.4c2.91,2.91,4.54,6.85,4.54,10.96c0,0.35-0.01,0.69-0.03,1.03
						c11.68,2.92,22.74,9.54,32.92,19.73c11.43,11.43,18.32,23.75,20.46,36.62c0.06,0.35,0.1,0.7,0.14,1.05
						c0.28,2.84,0.36,5.69,0.25,8.53c5.29,0.26,10.46,1.13,15.41,2.59c0.12,0.04,0.23,0.07,0.35,0.11
						c12.04,3.89,23.02,10.74,32.65,20.36c6.64,6.64,11.96,14.55,15.8,23.51c4.11,9.59,5.57,20.48,4.36,32.38
						c-1.08,10.12-4.83,19.95-11.14,29.28c-0.03,0.05-0.06,0.09-0.09,0.14c-3.86,5.58-9.87,12.42-18.35,20.91l-75.66,75.22
						C355.12,351.43,351.16,352.93,347.21,352.93z"/>
					<path class="st38" d="M295.19,46.57l30.4,30.4l-17.45,17.45c7.51-1.74,13.91-2.61,19.2-2.61c1.82,0,3.5,0.1,5.06,0.31
						c10.76,1.39,20.96,6.91,30.62,16.57c9.15,9.15,14.52,18.55,16.13,28.21c0.81,8.27-0.55,16.5-4.06,24.7
						c5.7-1.5,11.18-2.25,16.42-2.25c4.98,0,9.75,0.68,14.32,2.03c9.73,3.14,18.55,8.67,26.45,16.57
						c5.27,5.27,9.44,11.49,12.51,18.66c3.07,7.17,4.13,15.4,3.18,24.7c-0.81,7.54-3.66,14.93-8.56,22.17
						c-3.29,4.76-8.82,11.01-16.57,18.77l-75.63,75.18l-32.05-32.05l76.17-76.17c4.54-4.54,7.54-9,9-13.39
						c2.78-8.34,0.44-16.24-7.03-23.71c-5.96-5.96-12.35-8.94-19.18-8.94c-3.07,0-6.22,0.6-9.47,1.8
						c-5.49,2.12-10.91,5.85-16.25,11.19l-71.23,71.23l-31.5-31.5l71.23-71.23c7.1-7.1,11.52-12.99,13.28-17.67
						c3.15-8.41,0.88-16.46-6.81-24.15c-6.85-6.85-13.68-10.27-20.48-10.27c-2.06,0-4.13,0.31-6.19,0.95
						c-4.98,1.61-10.72,5.67-17.23,12.18l-72,72l-31.72-31.72L295.19,46.57 M295.19,15.57c-8.22,0-16.11,3.27-21.92,9.08
						L153.85,144.07c-12.11,12.11-12.11,31.73,0,43.84l31.72,31.72c6.05,6.05,13.99,9.08,21.92,9.08c2.81,0,5.61-0.38,8.34-1.14
						c-0.75,2.69-1.14,5.49-1.14,8.33c0,8.22,3.27,16.11,9.08,21.92l31.5,31.5c6.05,6.05,13.99,9.08,21.92,9.08
						c2.7,0,5.4-0.35,8.03-1.05c-2.76,10.34-0.09,21.84,8.03,29.95l32.05,32.05c6.05,6.05,13.99,9.08,21.92,9.08
						c7.9,0,15.81-3,21.86-9.02l75.63-75.18c0.02-0.02,0.04-0.04,0.06-0.06c9.15-9.15,15.74-16.69,20.14-23.04
						c0.06-0.09,0.13-0.19,0.19-0.28c7.75-11.46,12.36-23.65,13.71-36.25c0.01-0.05,0.01-0.1,0.02-0.14
						c1.49-14.55-0.37-28.03-5.53-40.06c-4.63-10.79-11.05-20.33-19.09-28.37c-11.37-11.37-24.44-19.5-38.84-24.15
						c-0.23-0.08-0.47-0.15-0.7-0.22c-1.71-0.51-3.44-0.96-5.19-1.35c-2.94-15.56-11.19-30.2-24.53-43.54
						c-9.4-9.4-19.54-16.29-30.3-20.62c-1.54-4.13-3.95-7.93-7.13-11.1l-30.4-30.4C311.29,18.84,303.41,15.57,295.19,15.57
						L295.19,15.57z"/>
				</g>
				<g>
					<path class="st11" d="M218.81,482.91c-3.97,0-7.93-1.51-10.96-4.54l-30.4-30.4c-2.91-2.91-4.54-6.85-4.54-10.96
						c0-0.35,0.01-0.69,0.03-1.03c-11.68-2.93-22.74-9.54-32.92-19.73c-11.43-11.43-18.32-23.75-20.46-36.62
						c-0.06-0.35-0.1-0.7-0.14-1.05c-0.28-2.84-0.36-5.69-0.25-8.53c-5.29-0.26-10.46-1.13-15.41-2.59
						c-0.12-0.04-0.23-0.07-0.35-0.11c-12.04-3.89-23.02-10.74-32.65-20.36c-6.64-6.64-11.96-14.55-15.8-23.51
						c-4.11-9.59-5.57-20.48-4.36-32.38c1.08-10.12,4.83-19.95,11.14-29.28c0.03-0.05,0.06-0.09,0.1-0.14
						c3.86-5.58,9.87-12.42,18.35-20.9l75.66-75.22c3.02-3.01,6.98-4.51,10.93-4.51c3.97,0,7.93,1.51,10.96,4.54l32.05,32.05
						c6.05,6.05,6.05,15.87,0,21.92l-76.17,76.17c-3.67,3.67-4.87,6.17-5.26,7.34c-0.45,1.36-1.14,3.42,3.28,7.84
						c4.4,4.4,7.27,4.4,8.22,4.4c1.18,0,2.52-0.27,3.98-0.8c3.41-1.34,7.03-3.92,10.77-7.66l71.23-71.23
						c3.03-3.03,6.99-4.54,10.96-4.54s7.93,1.51,10.96,4.54l31.5,31.5c6.05,6.05,6.05,15.87,0,21.92l-71.23,71.23
						c-7.87,7.87-9.49,11.51-9.73,12.16c-0.51,1.36-1.22,3.26,3.26,7.74c3.7,3.7,7.08,5.73,9.52,5.73c0.49,0,0.99-0.08,1.53-0.23
						c1.06-0.37,4.55-1.97,10.93-8.36l72-72c2.91-2.91,6.85-4.54,10.96-4.54s8.05,1.63,10.96,4.54l31.72,31.72
						c6.05,6.05,6.05,15.87,0,21.92L229.77,478.37C226.75,481.4,222.78,482.91,218.81,482.91z"/>
					<path class="st38" d="M166.79,176.55l32.05,32.05l-76.17,76.17c-4.54,4.54-7.54,9-9,13.39c-2.78,8.34-0.44,16.24,7.03,23.71
						c5.96,5.96,12.35,8.94,19.18,8.94c3.07,0,6.22-0.6,9.47-1.8c5.49-2.12,10.91-5.85,16.25-11.19l71.23-71.23l31.5,31.5
						l-71.23,71.23c-7.1,7.1-11.52,12.99-13.28,17.67c-3.15,8.41-0.88,16.46,6.81,24.15c6.85,6.85,13.68,10.27,20.48,10.27
						c2.06,0,4.13-0.31,6.19-0.95c4.98-1.61,10.72-5.67,17.23-12.18l72-72l31.72,31.72L218.81,467.41l-30.4-30.4l17.45-17.45
						c-7.51,1.74-13.91,2.61-19.2,2.61c-1.82,0-3.5-0.1-5.06-0.31c-10.76-1.39-20.96-6.91-30.62-16.57
						c-9.15-9.15-14.52-18.55-16.13-28.21c-0.81-8.27,0.55-16.5,4.06-24.7c-5.7,1.5-11.18,2.25-16.42,2.25
						c-4.98,0-9.75-0.68-14.32-2.03c-9.73-3.14-18.55-8.67-26.45-16.57c-5.27-5.27-9.44-11.49-12.51-18.66
						c-3.07-7.17-4.13-15.4-3.18-24.7c0.81-7.54,3.66-14.93,8.56-22.17c3.29-4.76,8.82-11.01,16.57-18.77L166.79,176.55
						 M166.79,145.55c-7.9,0-15.81,3-21.86,9.02l-75.63,75.18c-0.02,0.02-0.04,0.04-0.06,0.06c-9.15,9.15-15.74,16.69-20.14,23.04
						c-0.06,0.09-0.13,0.19-0.19,0.28c-7.75,11.46-12.36,23.65-13.71,36.25c-0.01,0.05-0.01,0.1-0.02,0.14
						c-1.49,14.55,0.37,28.03,5.53,40.06c4.63,10.79,11.05,20.33,19.09,28.37c11.37,11.37,24.44,19.5,38.84,24.15
						c0.23,0.08,0.47,0.15,0.7,0.22c1.71,0.51,3.44,0.96,5.19,1.35c2.94,15.56,11.19,30.2,24.53,43.54
						c9.4,9.4,19.54,16.29,30.3,20.62c1.54,4.13,3.95,7.93,7.13,11.1l30.4,30.4c6.05,6.05,13.99,9.08,21.92,9.08
						s15.87-3.03,21.92-9.08l119.42-119.42c12.11-12.11,12.11-31.73,0-43.84l-31.72-31.72c-6.05-6.05-13.99-9.08-21.92-9.08
						c-2.81,0-5.61,0.38-8.34,1.14c0.75-2.69,1.14-5.49,1.14-8.33c0-8.22-3.27-16.11-9.08-21.92l-31.5-31.5
						c-6.05-6.05-13.99-9.08-21.92-9.08c-2.7,0-5.4,0.35-8.03,1.05c2.76-10.34,0.09-21.84-8.03-29.95l-32.05-32.05
						C182.66,148.58,174.72,145.55,166.79,145.55L166.79,145.55z"/>
				</g>
			</g>
		</g>
	</g>
	<g>
		<path class="st11" d="M444.79,196.61c3.07,7.17,4.13,15.4,3.18,24.7c-0.81,7.54-3.66,14.93-8.56,22.17
			c-3.29,4.76-8.82,11.01-16.57,18.77l-75.63,75.18l-32.05-32.05l76.17-76.17c4.54-4.54,7.54-9,9-13.39
			c2.78-8.34,0.44-16.24-7.03-23.71c-8.63-8.63-18.18-11.01-28.65-7.13c-5.49,2.12-10.91,5.85-16.25,11.19l-71.23,71.23l-31.5-31.5
			l71.23-71.23c7.1-7.1,11.52-12.99,13.28-17.67c3.15-8.41,0.88-16.46-6.81-24.15c-8.93-8.93-17.82-12.04-26.67-9.33
			c-4.98,1.61-10.72,5.67-17.23,12.18l-72,72l-31.72-31.72L295.19,46.57l30.4,30.4l-17.45,17.45c10.1-2.34,18.18-3.11,24.26-2.31
			c10.76,1.39,20.96,6.91,30.62,16.57c9.15,9.15,14.52,18.55,16.13,28.21c0.81,8.27-0.55,16.5-4.06,24.7
			c11.12-2.93,21.37-3,30.73-0.22c9.73,3.14,18.55,8.67,26.45,16.57C437.54,183.22,441.71,189.44,444.79,196.61z"/>
		<path class="st11" d="M69.21,317.37c-3.07-7.17-4.13-15.4-3.18-24.7c0.81-7.54,3.66-14.93,8.56-22.17
			c3.29-4.76,8.82-11.01,16.57-18.77l75.63-75.18l32.05,32.05l-76.17,76.17c-4.54,4.54-7.54,9-9,13.39
			c-2.78,8.34-0.44,16.24,7.03,23.71c8.63,8.63,18.18,11.01,28.65,7.13c5.49-2.12,10.91-5.85,16.25-11.19l71.23-71.23l31.5,31.5
			l-71.23,71.23c-7.1,7.1-11.52,12.99-13.28,17.67c-3.15,8.41-0.88,16.46,6.81,24.15c8.93,8.93,17.82,12.04,26.67,9.33
			c4.98-1.61,10.72-5.67,17.23-12.18l72-72l31.72,31.72L218.81,467.41l-30.4-30.4l17.45-17.45c-10.1,2.34-18.18,3.11-24.26,2.31
			c-10.76-1.39-20.96-6.91-30.62-16.57c-9.15-9.15-14.52-18.55-16.13-28.21c-0.81-8.27,0.55-16.5,4.06-24.7
			c-11.12,2.93-21.37,3-30.73,0.22c-9.73-3.14-18.55-8.67-26.45-16.57C76.46,330.76,72.29,324.54,69.21,317.37z"/>
	</g>
</g>
<g id="Camada_2">
</g>
</svg>
